<?xml version='1.0' encoding='utf-8'?>
<svg xmlns:ns0="http://www.w3.org/2000/svg" class="progressbar__svg" width="100" height="100" xmlns="http://www.w3.org/2000/svg" viewBox="0 0 180 180"><style>
    :root {
      --color-secondary: hsl(0, 0%, 80%);
      --color-css: hsl(200, 100%, 60%);
      --color-white: hsl(0, 0%, 100%);
      --color-black: hsl(0, 0%, 0%);
    }

    .progressbar__svg-circle {
      fill: none;
      stroke-width: 10;
      stroke-linecap: round;
      transform: translate(0px, 10px) rotate(-90deg);
      transform-origin: 50% 40%;
    }

    .progressbar__svg-circle-bg {
      stroke: var(--color-secondary);
    }

    .shadow-css {
      filter: drop-shadow(0 0 5px var(--color-css));
    }

    .progressbar__svg-circle-fg {
      stroke: hsl(0, 0%, 100%);
      stroke-dashoffset: 440;
      stroke-dasharray: 440;
      animation: anim_circle 2s ease-in-out forwards;
    }

    @keyframes anim_circle {
      from {
        stroke-dashoffset: 440;
      }
      to {
        stroke-dashoffset: 44.0;
      }
    }
    </style><circle cx="80" cy="80" r="70" class="progressbar__svg-circle progressbar__svg-circle-bg" /><circle cx="80" cy="80" r="70" class="progressbar__svg-circle progressbar__svg-circle-fg shadow-css" /><g><ns0:svg viewBox="0 0 128 128" width="50%" height="50%" x="30%" y="28%"><ns0:defs><ns0:linearGradient id="a" x1="76.079" x2="523.48" y1="10.798" y2="365.95" gradientTransform="translate(1.11 14.613) scale(.24566)" gradientUnits="userSpaceOnUse"><ns0:stop offset="0" stop-color="#9013fe" /><ns0:stop offset="1" stop-color="#6610f2" /></ns0:linearGradient><ns0:linearGradient id="b" x1="193.51" x2="293.51" y1="109.74" y2="278.87" gradientTransform="translate(0 52)" gradientUnits="userSpaceOnUse"><ns0:stop offset="0" stop-color="#fff" /><ns0:stop offset="1" stop-color="#f1e5fc" /></ns0:linearGradient><ns0:filter id="c" width="197" height="249" x="161.9" y="135.46" color-interpolation-filters="sRGB" filterUnits="userSpaceOnUse"><ns0:feFlood flood-opacity="0" result="BackgroundImageFix" /><ns0:feColorMatrix in="SourceAlpha" values="0 0 0 0 0 0 0 0 0 0 0 0 0 0 0 0 0 0 127 0" /><ns0:feOffset dy="4" /><ns0:feGaussianBlur stdDeviation="8" /><ns0:feColorMatrix values="0 0 0 0 0 0 0 0 0 0 0 0 0 0 0 0 0 0 0.15 0" /><ns0:feBlend in2="BackgroundImageFix" result="effect1_dropShadow" /><ns0:feBlend in="SourceGraphic" in2="effect1_dropShadow" result="shape" /></ns0:filter></ns0:defs><ns0:path fill="url(#a)" d="M14.985 27.712c-.237-6.815 5.072-13.099 12.249-13.099h73.54c7.177 0 12.486 6.284 12.249 13.099-.228 6.546.068 15.026 2.202 21.94 2.141 6.936 5.751 11.319 11.664 11.883v6.387c-5.913.564-9.523 4.947-11.664 11.883-2.134 6.914-2.43 15.394-2.202 21.94.237 6.815-5.072 13.098-12.249 13.098h-73.54c-7.177 0-12.486-6.284-12.249-13.098.228-6.546-.068-15.026-2.203-21.94-2.14-6.935-5.76-11.319-11.673-11.883v-6.387c5.913-.563 9.533-4.947 11.673-11.883 2.135-6.914 2.43-15.394 2.203-21.94z" /><ns0:path fill="url(#b)" d="M267.1 364.46c47.297 0 75.798-23.158 75.798-61.355 0-28.873-20.336-49.776-50.532-53.085v-1.203c22.185-3.609 39.594-24.211 39.594-47.219 0-32.783-25.882-54.138-65.322-54.138h-88.74v217zm-54.692-189.48h45.911c24.958 0 39.131 11.128 39.131 31.279 0 21.505-16.484 33.535-46.372 33.535h-38.67zm0 161.96v-71.431h45.602c32.661 0 49.608 12.03 49.608 35.49 0 23.459-16.484 35.941-47.605 35.941z" filter="url(#c)" transform="translate(1.494 2.203) scale(.24566)" /></ns0:svg></g><g transform="translate(155, 140)"><circle cx="0" cy="0" r="20" fill="var(--color-black)" stroke="var(--color-white)" stroke-width="2" /><text x="0" y="0" fill="var(--color-white)" font-family="Arial, Helvetica, sans-serif" font-size="1em" text-anchor="middle" alignment-baseline="central">90%</text></g></svg>